HIERARCHY
ROOT Hips
{
	OFFSET	0.00	0.00	0.00
	CHANNELS 6 Xposition Yposition Zposition Zrotation Xrotation Yrotation
	JOINT LeftUpLeg
	{
		OFFSET	 0.126116	-0.014019	-0.065224
		CHANNELS 3 Zrotation Xrotation Yrotation
		JOINT LeftLeg
		{
			OFFSET	 0.000000	 0.000000	 0.569914
			CHANNELS 3 Zrotation Xrotation Yrotation
			JOINT LeftFoot
			{
				OFFSET	 0.000000	 0.000000	 0.544423
				CHANNELS 3 Zrotation Xrotation Yrotation
				JOINT LeftToeBase
				{
					OFFSET	 0.000000	 0.000000	 0.207117
					CHANNELS 3 Zrotation Xrotation Yrotation
					End Site
					{
						OFFSET	 0.000000	 0.000000	 0.207117
					}
				}
			}
		}
	}
	JOINT RightUpLeg
	{
		OFFSET	-0.124023	-0.008373	-0.065224
		CHANNELS 3 Zrotation Xrotation Yrotation
		JOINT RightLeg
		{
			OFFSET	 0.000000	 0.000000	 0.570047
			CHANNELS 3 Zrotation Xrotation Yrotation
			JOINT RightFoot
			{
				OFFSET	 0.000000	 0.000000	 0.544354
				CHANNELS 3 Zrotation Xrotation Yrotation
				JOINT RightToeBase
				{
					OFFSET	 0.000000	 0.000000	 0.207540
					CHANNELS 3 Zrotation Xrotation Yrotation
					End Site
					{
						OFFSET	 0.000000	 0.000000	 0.207540
					}
				}
			}
		}
	}
	JOINT Spine
	{
		OFFSET	 0.000184	-0.007763	 0.117403
		CHANNELS 3 Zrotation Xrotation Yrotation
		JOINT Spine1
		{
			OFFSET	 0.000000	 0.000000	 0.137269
			CHANNELS 3 Zrotation Xrotation Yrotation
			JOINT Spine2
			{
				OFFSET	 0.000000	 0.000000	 0.156879
				CHANNELS 3 Zrotation Xrotation Yrotation
				JOINT LeftShoulder
				{
					OFFSET	 0.080501	-0.002496	 0.160144
					CHANNELS 3 Zrotation Xrotation Yrotation
					JOINT LeftArm
					{
						OFFSET	 0.000000	 0.000000	 0.164363
						CHANNELS 3 Zrotation Xrotation Yrotation
						JOINT LeftForeArm
						{
							OFFSET	 0.000000	 0.000000	 0.364576
							CHANNELS 3 Zrotation Xrotation Yrotation
							JOINT LeftHand
							{
								OFFSET	 0.000000	 0.000000	 0.360812
								CHANNELS 3 Zrotation Xrotation Yrotation
								JOINT LeftHandIndex1
								{
									OFFSET	 0.000000	 0.000000	 0.086006
									CHANNELS 3 Zrotation Xrotation Yrotation
									JOINT LeftHandIndex2
									{
										OFFSET	 0.000000	 0.000000	 0.047236
										CHANNELS 3 Zrotation Xrotation Yrotation
										JOINT LeftHandIndex3
										{
											OFFSET	-0.004284	-0.000551	 0.038166
											CHANNELS 3 Zrotation Xrotation Yrotation
											End Site
											{
												OFFSET	-0.004284	-0.000551	 0.038166
											}
										}
									}
								}
							}
						}
					}
				}
				JOINT Neck
				{
					OFFSET	 0.000000	 0.000000	 0.176489
					CHANNELS 3 Zrotation Xrotation Yrotation
					JOINT Head
					{
						OFFSET	 0.000000	-0.001747	 0.077940
						CHANNELS 3 Zrotation Xrotation Yrotation
						End Site
						{
							OFFSET	 0.000000	-0.001747	 0.077940
						}
					}
				}
				JOINT RightShoulder
				{
					OFFSET	-0.080363	 0.000306	 0.159706
					CHANNELS 3 Zrotation Xrotation Yrotation
					JOINT RightArm
					{
						OFFSET	 0.000000	 0.000000	 0.164196
						CHANNELS 3 Zrotation Xrotation Yrotation
						JOINT RightForeArm
						{
							OFFSET	 0.000000	 0.000000	 0.365611
							CHANNELS 3 Zrotation Xrotation Yrotation
							JOINT RightHand
							{
								OFFSET	 0.000000	 0.000000	 0.360648
								CHANNELS 3 Zrotation Xrotation Yrotation
								JOINT RightHandIndex1
								{
									OFFSET	 0.000000	 0.000000	 0.069977
									CHANNELS 3 Zrotation Xrotation Yrotation
									JOINT RightHandIndex2
									{
										OFFSET	 0.000000	 0.000000	 0.052305
										CHANNELS 3 Zrotation Xrotation Yrotation
										JOINT RightHandIndex3
										{
											OFFSET	 0.009002	-0.000782	 0.042196
											CHANNELS 3 Zrotation Xrotation Yrotation
											End Site
											{
												OFFSET	 0.009002	-0.000782	 0.042196
											}
										}
									}
								}
							}
						}
					}
				}
			}
		}
	}
}
MOTION
Frames:    9
Frame Time: 0.03333334
-0.490195	-6.193210	 0.813412	-17.377660	 1.090696	 0.526776	 2.158088	-33.745160	 172.359100	-5.989606	-68.049800	-6.490452	 177.072100	 86.896500	-179.917600	-2.328648	 37.018460	-0.198408	-0.181699	-35.311200	-177.470000	 1.724416	-72.581920	 4.328063	-177.838800	 85.492630	 179.479500	 2.404670	 21.529080	-0.142584	-1.955111	 14.296710	 1.560966	-2.635375	 7.694899	-1.813179	-2.879899	 4.645044	-0.073844	-135.801800	 89.528530	-132.607100	 49.101210	 61.195370	-77.321420	-13.180390	-2.280734	-19.895880	 0.921687	-2.222627	-5.360961	-3.812334	 37.924440	-2.927599	-2.450526	 36.184240	 0.754587	-1.378229	 35.397820	-2.634230	 1.593529	 2.488986	-3.132349	-0.155912	 7.722048	 3.110346	 93.995070	 85.954410	 171.421800	-54.115810	 70.512070	 73.362070	-6.467583	-12.357580	 21.049160	-27.352920	-3.209454	 9.541198	 6.437017	 35.671460	-0.771858	 2.830251	 35.756010	-7.813440	-2.350882	 35.473990	 5.254307
-0.488200	-6.191915	 0.822124	-18.008850	 2.223890	 0.417984	 2.360035	-34.292860	 172.487400	-5.316350	-66.777290	-5.599068	 176.555200	 87.396690	-179.180300	-2.338815	 35.867210	-0.169912	 0.191576	-35.770200	-177.556600	 1.526037	-70.773380	 4.342657	-177.328200	 85.846600	 179.122600	 2.405791	 20.697930	-0.159216	-1.992446	 14.302840	 1.487129	-2.617146	 7.506334	-1.799092	-2.757426	 4.460341	-0.075158	-129.038600	 89.462950	-139.371600	 47.765270	 61.174500	-76.452000	-13.126770	-2.353815	-19.305740	 1.254533	-2.235968	-5.357832	-3.812334	 37.924440	-2.927599	-2.450526	 36.184240	 0.754587	-1.378229	 35.397820	-2.634230	 1.719197	 2.332364	-3.094275	-0.041631	 7.578115	 3.489829	 94.154950	 85.995320	 171.166400	-54.047210	 70.759210	 73.181450	-6.559208	-12.252820	 20.648230	-27.577120	-3.211756	 9.536620	 6.437017	 35.671460	-0.771858	 2.830251	 35.756010	-7.813440	-2.350882	 35.473990	 5.254307
-0.486054	-6.190599	 0.830538	-18.606090	 3.340235	 0.240991	 2.563835	-34.848490	 172.718300	-4.766161	-65.588200	-4.840324	 175.738600	 87.898760	-178.149600	-2.346978	 34.865520	-0.145648	 0.570177	-36.311240	-177.506100	 1.225775	-69.245990	 4.265423	-176.716500	 86.253940	 178.607500	 2.406277	 20.255990	-0.168014	-2.038467	 14.272500	 1.459838	-2.610488	 7.330982	-1.758567	-2.640409	 4.287944	-0.075949	-124.705000	 89.408840	-143.725800	 46.464040	 61.092050	-75.613890	-13.167610	-2.372886	-18.768440	 1.428612	-2.246646	-5.355714	-3.812334	 37.924440	-2.927599	-2.450526	 36.184240	 0.754587	-1.378229	 35.397820	-2.634230	 1.835391	 2.202620	-3.030463	 0.075104	 7.436747	 3.892886	 94.281520	 86.026450	 170.965200	-54.017380	 71.052020	 72.932750	-6.496260	-12.078800	 20.268590	-27.632120	-3.214146	 9.532794	 6.437017	 35.671460	-0.771858	 2.830251	 35.756010	-7.813440	-2.350882	 35.473990	 5.254307
-0.483111	-6.189269	 0.840756	-19.448050	 4.644301	-0.053844	 2.927650	-35.360120	 173.085200	-4.348011	-64.116610	-4.084879	 173.787500	 88.536600	-175.971300	-2.355893	 33.674180	-0.117383	 1.121899	-37.087620	-177.296200	 0.441215	-67.836500	 3.857868	-175.232300	 87.034100	 177.061900	 2.406673	 19.839150	-0.176290	-2.033582	 14.308720	 1.509224	-2.549736	 7.156675	-1.682922	-2.487387	 4.074800	-0.076182	-121.172800	 89.353810	-147.280200	 44.903250	 60.936890	-74.805470	-13.411240	-2.338361	-18.128980	 1.467087	-2.259334	-5.354258	-3.812334	 37.924440	-2.927599	-2.450526	 36.184240	 0.754587	-1.378229	 35.397820	-2.634230	 1.995878	 2.056591	-2.937781	 0.214799	 7.243174	 4.391063	 94.395880	 86.056330	 170.788700	-53.979900	 71.476690	 72.539240	-6.482728	-11.851450	 19.715170	-27.778130	-3.217938	 9.526265	 6.437017	 35.671460	-0.771858	 2.830251	 35.756010	-7.813440	-2.350882	 35.473990	 5.254307
-0.481594	-6.188764	 0.845883	-19.934710	 5.237925	-0.226733	 3.191543	-35.519000	 173.314100	-4.261138	-63.344110	-3.766187	 171.847800	 88.869090	-173.933300	-2.359869	 33.103270	-0.104063	 1.421566	-37.503120	-177.152100	-0.128485	-67.184510	 3.507399	-174.075800	 87.489390	 175.797600	 2.406877	 19.595200	-0.181127	-2.001127	 14.424380	 1.579701	-2.490040	 7.116522	-1.634382	-2.405268	 3.979414	-0.075672	-119.970700	 89.329730	-148.480700	 44.114800	 60.859730	-74.512530	-13.530330	-2.335812	-17.782660	 1.541581	-2.266971	-5.352828	-3.812334	 37.924440	-2.927599	-2.450526	 36.184240	 0.754587	-1.378229	 35.397820	-2.634230	 2.087667	 1.980783	-2.895555	 0.280191	 7.163369	 4.623400	 94.443150	 86.070250	 170.719200	-53.903870	 71.717010	 72.275730	-6.534176	-11.730140	 19.365490	-27.927170	-3.220635	 9.520868	 6.437017	 35.671460	-0.771858	 2.830251	 35.756010	-7.813440	-2.350882	 35.473990	 5.254307
-0.479909	-6.188420	 0.851558	-20.497110	 5.875940	-0.426993	 3.548836	-35.599170	 173.591800	-4.214969	-62.434020	-3.416206	 167.521500	 89.248530	-169.492100	-2.363630	 32.538210	-0.090999	 1.712713	-37.946750	-176.916700	-0.856284	-66.418470	 2.995611	-172.550300	 87.955700	 174.091100	 2.407052	 19.351100	-0.185954	-1.961632	 14.616470	 1.690642	-2.421837	 7.108352	-1.569454	-2.315844	 3.887103	-0.074725	-118.971500	 89.309880	-149.484900	 43.220930	 60.805060	-74.318020	-13.563330	-2.386605	-17.339890	 1.820712	-2.278357	-5.349538	-3.812334	 37.924440	-2.927599	-2.450526	 36.184240	 0.754587	-1.378229	 35.397820	-2.634230	 2.185534	 1.891863	-2.860884	 0.351792	 7.095040	 4.829729	 94.494770	 86.087680	 170.647500	-53.759020	 72.026240	 71.910500	-6.640975	-11.573920	 18.882450	-28.169330	-3.224865	 9.511551	 6.437017	 35.671460	-0.771858	 2.830251	 35.756010	-7.813440	-2.350882	 35.473990	 5.254307
-0.478454	-6.188359	 0.857011	-20.978670	 6.490911	-0.594210	 3.924129	-35.647520	 173.845800	-4.136327	-61.501720	-3.028540	 155.918200	 89.599440	-157.742800	-2.366559	 32.079430	-0.080483	 1.879620	-38.249320	-176.694700	-1.575528	-65.570400	 2.404632	-170.713500	 88.362900	 172.027100	 2.407123	 19.237440	-0.188199	-1.966693	 14.833130	 1.776987	-2.395861	 7.150721	-1.504853	-2.247612	 3.833561	-0.073575	-118.345500	 89.300310	-150.137900	 42.357480	 60.837130	-74.341180	-13.566560	-2.480648	-16.819400	 2.284317	-2.293483	-5.344067	-3.812334	 37.924440	-2.927599	-2.450526	 36.184240	 0.754587	-1.378229	 35.397820	-2.634230	 2.254230	 1.859145	-2.811174	 0.418958	 7.030736	 4.915445	 94.553980	 86.109920	 170.570200	-53.477210	 72.403590	 71.365920	-6.795429	-11.382040	 18.279660	-28.497120	-3.230501	 9.498549	 6.437017	 35.671460	-0.771858	 2.830251	 35.756010	-7.813440	-2.350882	 35.473990	 5.254307
-0.477571	-6.188588	 0.862240	-21.247640	 7.076367	-0.668279	 4.224952	-35.761390	 173.998200	-3.948433	-60.623140	-2.602238	 112.321300	 89.827540	-113.961800	-2.368591	 31.748710	-0.072957	 1.855130	-38.267110	-176.628700	-2.126565	-64.632530	 1.846678	-168.482600	 88.689850	 169.571500	 2.407093	 19.285070	-0.187258	-2.048099	 14.983680	 1.757452	-2.447639	 7.232202	-1.478547	-2.220316	 3.827309	-0.072802	-118.106100	 89.308460	-150.441700	 41.614330	 60.966590	-74.576420	-13.652150	-2.567109	-16.225630	 2.774204	-2.309521	-5.337592	-3.812334	 37.924440	-2.927599	-2.450526	 36.184240	 0.754587	-1.378229	 35.397820	-2.634230	 2.258677	 1.894846	-2.739580	 0.483062	 6.974541	 4.848817	 94.636690	 86.140300	 170.462100	-52.996890	 72.855740	 70.565920	-6.971688	-11.144930	 17.566740	-28.888510	-3.237039	 9.483039	 6.437017	 35.671460	-0.771858	 2.830251	 35.756010	-7.813440	-2.350882	 35.473990	 5.254307
-0.477061	-6.188472	 0.866500	-21.278940	 7.585145	-0.674785	 4.384231	-35.962210	 174.052100	-3.706164	-59.898090	-2.238011	 48.699330	 89.787860	-50.169870	-2.369255	 31.638210	-0.070453	 1.663655	-38.383020	-176.587800	-2.332642	-63.845330	 1.485541	-165.870700	 88.929730	 166.808700	 2.407015	 19.394230	-0.185095	-2.178259	 15.050110	 1.682318	-2.549064	 7.313897	-1.510981	-2.228271	 3.853778	-0.072548	-118.423200	 89.332660	-150.208900	 41.102520	 61.088730	-74.910070	-13.821830	-2.607529	-15.742460	 3.090081	-2.322688	-5.332525	-3.812334	 37.924440	-2.927599	-2.450526	 36.184240	 0.754587	-1.378229	 35.397820	-2.634230	 2.211845	 1.964694	-2.693780	 0.533492	 6.942457	 4.733042	 94.680780	 86.144410	 170.383300	-52.325240	 73.346890	 69.535600	-7.113218	-10.910670	 16.879920	-29.281670	-3.243272	 9.467650	 6.437017	 35.671460	-0.771858	 2.830251	 35.756010	-7.813440	-2.350882	 35.473990	 5.254307
